<svg xmlns="http://www.w3.org/2000/svg" version="1.1" xmlns:xlink="http://www.w3.org/1999/xlink" xmlns:svgjs="http://svgjs.dev/svgjs" width="2000" height="1500" viewBox="0 0 2000 1500"><rect width="2000" height="1500" fill="#ffffff"></rect><g transform="matrix(0.75,0,0,0.75,249.0909387967199,445.0362121887148)"><svg viewBox="0 0 396 161" data-background-color="#ffffff" preserveAspectRatio="xMidYMid meet" height="813" width="2000" xmlns="http://www.w3.org/2000/svg" xmlns:xlink="http://www.w3.org/1999/xlink"><g id="tight-bounds" transform="matrix(1,0,0,1,0.23999215766593807,0.02344376812943949)"><svg viewBox="0 0 395.52 160.95311246374112" height="160.95311246374112" width="395.52"><g><svg viewBox="0 0 605.144934466565 246.2579912370052" height="160.95311246374112" width="395.52"><g><rect width="8.274721348651827" height="246.2579912370052" x="233.09055195026093" y="0" fill="#0074d9" opacity="1" stroke-width="0" stroke="transparent" fill-opacity="1" class="rect-o-0" data-fill-palette-color="primary" rx="1%" id="o-0" data-palette-color="#0074d9"></rect></g><g transform="matrix(1,0,0,1,263.0268475100432,0.6125820677537348)"><svg viewBox="0 0 342.11808695652184 245.03282710149773" height="245.03282710149773" width="342.11808695652184"><g id="textblocktransform"><svg viewBox="0 0 342.11808695652184 245.03282710149773" height="245.03282710149773" width="342.11808695652184" id="textblock"><g><svg viewBox="0 0 342.11808695652184 198.764" height="198.764" width="342.11808695652184"><g transform="matrix(1,0,0,1,0,0)"><svg width="342.11808695652184" viewBox="2.799999713897705 -35.5 134.59999084472656 75.20000457763672" height="198.764" data-palette-color="#0074d9"><svg></svg><svg></svg><g class="wordmark-text-0" data-fill-palette-color="primary" id="text-0"><path xmlns="http://www.w3.org/2000/svg" d="M15.15 0.6v0c-1.9 0-3.607-0.333-5.12-1-1.52-0.667-2.82-1.717-3.9-3.15-1.087-1.433-1.913-3.293-2.48-5.58-0.567-2.28-0.85-5.053-0.85-8.32v0c0-3.233 0.283-6 0.85-8.3 0.567-2.3 1.393-4.167 2.48-5.6 1.08-1.433 2.38-2.483 3.9-3.15 1.513-0.667 3.22-1 5.12-1v0c2.8 0 5.017 0.607 6.65 1.82 1.633 1.22 2.933 3.013 3.9 5.38v0l-2.35 1.4c-0.667-2-1.633-3.5-2.9-4.5-1.267-1-3.033-1.5-5.3-1.5v0c-2.933 0-5.207 1.04-6.82 3.12-1.62 2.087-2.43 5.147-2.43 9.18v0 6.3c0 4.033 0.81 7.09 2.43 9.17 1.613 2.087 3.887 3.13 6.82 3.13v0c2.4 0 4.243-0.533 5.53-1.6 1.28-1.067 2.253-2.65 2.92-4.75v0l2.3 1.35c-0.9 2.467-2.207 4.35-3.92 5.65-1.72 1.3-3.997 1.95-6.83 1.95zM52.05 0v-16.45h-16.95v16.45h-2.9v-34.9h2.9v15.9h16.95v-15.9h2.9v34.9zM74.2 0h-12v-2.4h4.55v-30.1h-4.55v-2.4h12v2.4h-4.55v30.1h4.55zM84.3 0h-2.9v-34.9h12.7c5.467 0 8.2 3.25 8.2 9.75v0c0 6.5-2.733 9.75-8.2 9.75v0h-9.8zM84.3-32.35v14.4h9.7c1.8 0 3.123-0.493 3.97-1.48 0.853-0.98 1.28-2.353 1.28-4.12v0-3.2c0-1.767-0.427-3.143-1.28-4.13-0.847-0.98-2.17-1.47-3.97-1.47v0z" fill="#0074d9" fill-rule="nonzero" stroke="none" stroke-width="1" stroke-linecap="butt" stroke-linejoin="miter" stroke-miterlimit="10" stroke-dasharray="" stroke-dashoffset="0" font-family="none" font-weight="none" font-size="none" text-anchor="none" style="mix-blend-mode: normal" data-fill-palette-color="primary" opacity="1"></path><path xmlns="http://www.w3.org/2000/svg" d="M15.15 39.7v0c-1.9 0-3.607-0.333-5.12-1-1.52-0.667-2.82-1.717-3.9-3.15-1.087-1.433-1.913-3.293-2.48-5.58-0.567-2.28-0.85-5.053-0.85-8.32v0c0-3.233 0.283-6 0.85-8.3 0.567-2.3 1.393-4.167 2.48-5.6 1.08-1.433 2.38-2.483 3.9-3.15 1.513-0.667 3.22-1 5.12-1v0c2.8 0 5.017 0.607 6.65 1.82 1.633 1.22 2.933 3.013 3.9 5.38v0l-2.35 1.4c-0.667-2-1.633-3.5-2.9-4.5-1.267-1-3.033-1.5-5.3-1.5v0c-2.933 0-5.207 1.04-6.82 3.12-1.62 2.087-2.43 5.147-2.43 9.18v0 6.3c0 4.033 0.81 7.09 2.43 9.17 1.613 2.087 3.887 3.13 6.82 3.13v0c2.4 0 4.243-0.533 5.53-1.6 1.28-1.067 2.253-2.65 2.92-4.75v0l2.3 1.35c-0.9 2.467-2.207 4.35-3.92 5.65-1.72 1.3-3.997 1.95-6.83 1.95zM54.55 39.1h-2.95l-3.4-10.95h-13.25l-3.35 10.95h-2.95l11.05-34.9h3.8zM47.55 25.8l-4.2-13.45-1.6-5.6h-0.35l-1.65 5.6-4.1 13.45zM70.25 39.7v0c-1.9 0-3.607-0.333-5.12-1-1.52-0.667-2.82-1.717-3.9-3.15-1.087-1.433-1.913-3.293-2.48-5.58-0.567-2.28-0.85-5.053-0.85-8.32v0c0-3.233 0.283-6 0.85-8.3 0.567-2.3 1.393-4.167 2.48-5.6 1.08-1.433 2.38-2.483 3.9-3.15 1.513-0.667 3.22-1 5.12-1v0c2.8 0 5.017 0.607 6.65 1.82 1.633 1.22 2.933 3.013 3.9 5.38v0l-2.35 1.4c-0.667-2-1.633-3.5-2.9-4.5-1.267-1-3.033-1.5-5.3-1.5v0c-2.933 0-5.207 1.04-6.82 3.12-1.62 2.087-2.43 5.147-2.43 9.18v0 6.3c0 4.033 0.81 7.09 2.43 9.17 1.613 2.087 3.887 3.13 6.82 3.13v0c2.4 0 4.243-0.533 5.53-1.6 1.28-1.067 2.253-2.65 2.92-4.75v0l2.3 1.35c-0.9 2.467-2.207 4.35-3.92 5.65-1.72 1.3-3.997 1.95-6.83 1.95zM107.15 39.1v-16.45h-16.95v16.45h-2.9v-34.9h2.9v15.9h16.95v-15.9h2.9v34.9zM137.4 39.1h-18.5v-34.9h18.5v2.55h-15.6v13.35h14.8v2.55h-14.8v13.9h15.6z" fill="#0074d9" fill-rule="nonzero" stroke="none" stroke-width="1" stroke-linecap="butt" stroke-linejoin="miter" stroke-miterlimit="10" stroke-dasharray="" stroke-dashoffset="0" font-family="none" font-weight="none" font-size="none" text-anchor="none" style="mix-blend-mode: normal" data-fill-palette-color="primary" opacity="1"></path></g></svg></g></svg></g><g transform="matrix(1,0,0,1,0,220.42557421113045)"><svg viewBox="0 0 325.01218260869575 24.607252890367292" height="24.607252890367292" width="325.01218260869575"><g transform="matrix(1,0,0,1,0,0)"><svg width="325.01218260869575" viewBox="2.299999952316284 -37 628.6199951171875 47.599998474121094" height="24.607252890367292" data-palette-color="#610817"><path d="M12.25 0.6L12.25 0.6Q7.55 0.6 4.93-2.55 2.3-5.7 2.3-12.8L2.3-12.8Q2.3-19.9 4.93-23.05 7.55-26.2 12.25-26.2L12.25-26.2Q15.55-26.2 17.63-24.7 19.7-23.2 20.7-20.7L20.7-20.7 18.4-19.55Q17.6-21.65 16.15-22.7 14.7-23.75 12.25-23.75L12.25-23.75Q8.75-23.75 7-21.53 5.25-19.3 5.25-15.05L5.25-15.05 5.25-10.55Q5.25-6.3 7-4.08 8.75-1.85 12.25-1.85L12.25-1.85Q14.8-1.85 16.4-2.95 18-4.05 18.95-6.25L18.95-6.25 21-4.85Q19.85-2.35 17.7-0.88 15.55 0.6 12.25 0.6ZM45.05 0L42 0Q39.25 0 39.25-2.7L39.25-2.7 39.25-4.1 38.85-4.1Q38.2-1.85 36.45-0.63 34.7 0.6 32.05 0.6L32.05 0.6Q28.45 0.6 26.55-1.23 24.65-3.05 24.65-6.75L24.65-6.75Q24.65-10.4 26.9-12.35 29.15-14.3 33.7-14.3L33.7-14.3 39.25-14.3 39.25-17.7Q39.25-20.95 37.85-22.35 36.45-23.75 33.5-23.75L33.5-23.75Q31.25-23.75 29.75-22.73 28.25-21.7 27.3-19.6L27.3-19.6 25.5-21.15Q26.5-23.4 28.52-24.8 30.55-26.2 33.6-26.2L33.6-26.2Q37.75-26.2 39.87-24.15 42-22.1 42-18L42-18 42-2.4 45.05-2.4 45.05 0ZM32.65-1.8L32.65-1.8Q34.05-1.8 35.25-2.23 36.45-2.65 37.35-3.45 38.25-4.25 38.75-5.33 39.25-6.4 39.25-7.7L39.25-7.7 39.25-12.2 33.65-12.2Q30.65-12.2 29.07-11.03 27.5-9.85 27.5-7.75L27.5-7.75 27.5-6.15Q27.5-4 28.92-2.9 30.35-1.8 32.65-1.8ZM58.5 0.6L58.5 0.6Q53.8 0.6 51.17-2.55 48.55-5.7 48.55-12.8L48.55-12.8Q48.55-19.9 51.17-23.05 53.8-26.2 58.5-26.2L58.5-26.2Q61.8-26.2 63.87-24.7 65.95-23.2 66.95-20.7L66.95-20.7 64.65-19.55Q63.85-21.65 62.4-22.7 60.95-23.75 58.5-23.75L58.5-23.75Q55-23.75 53.25-21.53 51.5-19.3 51.5-15.05L51.5-15.05 51.5-10.55Q51.5-6.3 53.25-4.08 55-1.85 58.5-1.85L58.5-1.85Q61.05-1.85 62.65-2.95 64.25-4.05 65.2-6.25L65.2-6.25 67.25-4.85Q66.09-2.35 63.95-0.88 61.8 0.6 58.5 0.6ZM72.79 0L72.79-37 75.54-37 75.54-21.55 75.94-21.55Q76.64-23.75 78.37-24.98 80.09-26.2 82.84-26.2L82.84-26.2Q86.34-26.2 88.29-23.93 90.24-21.65 90.24-17.1L90.24-17.1 90.24 0 87.49 0 87.49-16.95Q87.49-20.2 86.09-21.98 84.69-23.75 81.84-23.75L81.84-23.75Q80.54-23.75 79.39-23.35 78.24-22.95 77.39-22.18 76.54-21.4 76.04-20.28 75.54-19.15 75.54-17.75L75.54-17.75 75.54 0 72.79 0ZM106.49 0.6L106.49 0.6Q104.24 0.6 102.37-0.18 100.49-0.95 99.14-2.58 97.79-4.2 97.07-6.73 96.34-9.25 96.34-12.8L96.34-12.8Q96.34-16.35 97.07-18.88 97.79-21.4 99.14-23.03 100.49-24.65 102.37-25.43 104.24-26.2 106.49-26.2L106.49-26.2Q111.04-26.2 113.62-23.05 116.19-19.9 116.19-13.05L116.19-13.05 116.19-12.3 99.29-12.3 99.29-10.55Q99.29-6.3 101.17-4.08 103.04-1.85 106.49-1.85L106.49-1.85Q109.34-1.85 111.07-3.13 112.79-4.4 113.79-6.95L113.79-6.95 115.69-5.65Q114.59-2.7 112.37-1.05 110.14 0.6 106.49 0.6ZM106.49-23.85L106.49-23.85Q103.04-23.85 101.17-21.58 99.29-19.3 99.29-15.05L99.29-15.05 99.29-14.4 113.24-14.4 113.24-15.05Q113.24-19.3 111.57-21.58 109.89-23.85 106.49-23.85ZM147.79 0L147.79-4.05 147.39-4.05Q146.69-1.85 144.96-0.63 143.24 0.6 140.49 0.6L140.49 0.6Q136.94 0.6 135.01-1.68 133.09-3.95 133.09-8.5L133.09-8.5 133.09-25.6 135.84-25.6 135.84-8.65Q135.84-5.4 137.24-3.63 138.64-1.85 141.49-1.85L141.49-1.85Q142.79-1.85 143.94-2.25 145.09-2.65 145.94-3.43 146.79-4.2 147.29-5.33 147.79-6.45 147.79-7.85L147.79-7.85 147.79-25.6 150.54-25.6 150.54 0 147.79 0ZM161.38 0L158.63 0 158.63-25.6 161.38-25.6 161.38-21.55 161.78-21.55Q162.48-23.75 164.21-24.98 165.93-26.2 168.68-26.2L168.68-26.2Q172.18-26.2 174.13-23.93 176.08-21.65 176.08-17.1L176.08-17.1 176.08 0 173.33 0 173.33-16.95Q173.33-20.2 171.93-21.98 170.53-23.75 167.68-23.75L167.68-23.75Q166.38-23.75 165.23-23.35 164.08-22.95 163.23-22.18 162.38-21.4 161.88-20.28 161.38-19.15 161.38-17.75L161.38-17.75 161.38 0ZM190.23 0L186.93 0Q185.38 0 184.71-0.68 184.03-1.35 184.03-2.9L184.03-2.9 184.03-37 186.78-37 186.78-2.4 190.23-2.4 190.23 0ZM204.28 0.6L204.28 0.6Q202.03 0.6 200.15-0.18 198.28-0.95 196.93-2.58 195.58-4.2 194.85-6.73 194.13-9.25 194.13-12.8L194.13-12.8Q194.13-16.35 194.85-18.88 195.58-21.4 196.93-23.03 198.28-24.65 200.15-25.43 202.03-26.2 204.28-26.2L204.28-26.2Q206.53-26.2 208.4-25.43 210.28-24.65 211.63-23.03 212.98-21.4 213.7-18.88 214.43-16.35 214.43-12.8L214.43-12.8Q214.43-9.25 213.7-6.73 212.98-4.2 211.63-2.58 210.28-0.95 208.4-0.18 206.53 0.6 204.28 0.6ZM204.28-1.85L204.28-1.85Q207.73-1.85 209.6-4.08 211.48-6.3 211.48-10.55L211.48-10.55 211.48-15.05Q211.48-19.3 209.6-21.53 207.73-23.75 204.28-23.75L204.28-23.75Q200.83-23.75 198.95-21.53 197.08-19.3 197.08-15.05L197.08-15.05 197.08-10.55Q197.08-6.3 198.95-4.08 200.83-1.85 204.28-1.85ZM228.98 0.6L228.98 0.6Q224.28 0.6 221.65-2.55 219.03-5.7 219.03-12.8L219.03-12.8Q219.03-19.9 221.65-23.05 224.28-26.2 228.98-26.2L228.98-26.2Q232.28-26.2 234.35-24.7 236.43-23.2 237.43-20.7L237.43-20.7 235.13-19.55Q234.33-21.65 232.88-22.7 231.43-23.75 228.98-23.75L228.98-23.75Q225.48-23.75 223.73-21.53 221.98-19.3 221.98-15.05L221.98-15.05 221.98-10.55Q221.98-6.3 223.73-4.08 225.48-1.85 228.98-1.85L228.98-1.85Q231.53-1.85 233.13-2.95 234.73-4.05 235.68-6.25L235.68-6.25 237.73-4.85Q236.58-2.35 234.43-0.88 232.28 0.6 228.98 0.6ZM243.27 0L243.27-37 246.02-37 246.02-17 245.82-12.25 246.12-12.25 249.72-16.7 257.27-25.6 260.57-25.6 251.62-15.15 261.52 0 258.22 0 249.62-13.5 246.02-9.4 246.02 0 243.27 0ZM274.27 0.6L274.27 0.6Q272.02 0.6 270.15-0.18 268.27-0.95 266.92-2.58 265.57-4.2 264.85-6.73 264.12-9.25 264.12-12.8L264.12-12.8Q264.12-16.35 264.85-18.88 265.57-21.4 266.92-23.03 268.27-24.65 270.15-25.43 272.02-26.2 274.27-26.2L274.27-26.2Q278.82-26.2 281.4-23.05 283.97-19.9 283.97-13.05L283.97-13.05 283.97-12.3 267.07-12.3 267.07-10.55Q267.07-6.3 268.95-4.08 270.82-1.85 274.27-1.85L274.27-1.85Q277.12-1.85 278.85-3.13 280.57-4.4 281.57-6.95L281.57-6.95 283.47-5.65Q282.37-2.7 280.15-1.05 277.92 0.6 274.27 0.6ZM274.27-23.85L274.27-23.85Q270.82-23.85 268.95-21.58 267.07-19.3 267.07-15.05L267.07-15.05 267.07-14.4 281.02-14.4 281.02-15.05Q281.02-19.3 279.35-21.58 277.67-23.85 274.27-23.85ZM305.32 0L305.32-4.05 304.87-4.05Q304.17-1.7 302.42-0.55 300.67 0.6 298.12 0.6L298.12 0.6Q293.47 0.6 291.07-2.83 288.67-6.25 288.67-12.8L288.67-12.8Q288.67-19.35 291.07-22.78 293.47-26.2 298.12-26.2L298.12-26.2Q300.67-26.2 302.42-25.05 304.17-23.9 304.87-21.55L304.87-21.55 305.32-21.55 305.32-37 308.07-37 308.07 0 305.32 0ZM298.82-1.85L298.82-1.85Q300.17-1.85 301.34-2.25 302.52-2.65 303.42-3.4 304.32-4.15 304.82-5.2 305.32-6.25 305.32-7.55L305.32-7.55 305.32-18.05Q305.32-19.35 304.82-20.4 304.32-21.45 303.42-22.2 302.52-22.95 301.34-23.35 300.17-23.75 298.82-23.75L298.82-23.75Q295.32-23.75 293.47-21.45 291.62-19.15 291.62-15.05L291.62-15.05 291.62-10.55Q291.62-6.45 293.47-4.15 295.32-1.85 298.82-1.85ZM318.37 0.45L318.37 0.45Q316.06 0.45 316.06-1.55L316.06-1.55 316.06-2.2Q316.06-4.2 318.37-4.2L318.37-4.2Q320.67-4.2 320.67-2.2L320.67-2.2 320.67-1.55Q320.67 0.45 318.37 0.45ZM318.37-20.85L318.37-20.85Q316.06-20.85 316.06-22.85L316.06-22.85 316.06-23.5Q316.06-25.5 318.37-25.5L318.37-25.5Q320.67-25.5 320.67-23.5L320.67-23.5 320.67-22.85Q320.67-20.85 318.37-20.85ZM345.91 0.6L345.91 0.6Q342.91 0.6 340.76-0.58 338.61-1.75 337.01-4.15L337.01-4.15 338.96-5.75Q340.36-3.65 342.01-2.73 343.66-1.8 345.91-1.8L345.91-1.8Q348.46-1.8 349.96-3.05 351.46-4.3 351.46-6.7L351.46-6.7Q351.46-8.8 350.46-9.98 349.46-11.15 346.86-11.6L346.86-11.6 344.86-11.95Q341.36-12.55 339.59-14.18 337.81-15.8 337.81-19.1L337.81-19.1Q337.81-22.75 340.01-24.48 342.21-26.2 345.71-26.2L345.71-26.2Q348.36-26.2 350.31-25.28 352.26-24.35 353.71-22.35L353.71-22.35 351.91-20.7Q349.61-23.8 345.76-23.8L345.76-23.8Q343.21-23.8 341.86-22.65 340.51-21.5 340.51-19.2L340.51-19.2Q340.51-16.95 341.61-15.9 342.71-14.85 345.26-14.4L345.26-14.4 347.21-14.05Q350.86-13.4 352.51-11.75 354.16-10.1 354.16-6.95L354.16-6.95Q354.16-3.35 352.01-1.38 349.86 0.6 345.91 0.6ZM379.31 0L376.26 0Q373.51 0 373.51-2.7L373.51-2.7 373.51-4.1 373.11-4.1Q372.46-1.85 370.71-0.63 368.96 0.6 366.31 0.6L366.31 0.6Q362.71 0.6 360.81-1.23 358.91-3.05 358.91-6.75L358.91-6.75Q358.91-10.4 361.16-12.35 363.41-14.3 367.96-14.3L367.96-14.3 373.51-14.3 373.51-17.7Q373.51-20.95 372.11-22.35 370.71-23.75 367.76-23.75L367.76-23.75Q365.51-23.75 364.01-22.73 362.51-21.7 361.56-19.6L361.56-19.6 359.76-21.15Q360.76-23.4 362.78-24.8 364.81-26.2 367.86-26.2L367.86-26.2Q372.01-26.2 374.13-24.15 376.26-22.1 376.26-18L376.26-18 376.26-2.4 379.31-2.4 379.31 0ZM366.91-1.8L366.91-1.8Q368.31-1.8 369.51-2.23 370.71-2.65 371.61-3.45 372.51-4.25 373.01-5.33 373.51-6.4 373.51-7.7L373.51-7.7 373.51-12.2 367.91-12.2Q364.91-12.2 363.33-11.03 361.76-9.85 361.76-7.75L361.76-7.75 361.76-6.15Q361.76-4 363.18-2.9 364.61-1.8 366.91-1.8ZM392.46 0L389.06 0 380.86-25.6 383.61-25.6 388.06-11.4 390.56-2.4 390.96-2.4 393.46-11.4 397.91-25.6 400.61-25.6 392.46 0ZM407.05-32.65L407.05-32.65Q406.05-32.65 405.63-33.1 405.2-33.55 405.2-34.3L405.2-34.3 405.2-35Q405.2-35.75 405.63-36.2 406.05-36.65 407.05-36.65L407.05-36.65Q408.05-36.65 408.48-36.2 408.9-35.75 408.9-35L408.9-35 408.9-34.3Q408.9-33.55 408.48-33.1 408.05-32.65 407.05-32.65ZM405.65 0L405.65-25.6 408.4-25.6 408.4 0 405.65 0ZM419.45 0L416.7 0 416.7-25.6 419.45-25.6 419.45-21.55 419.85-21.55Q420.55-23.75 422.28-24.98 424-26.2 426.75-26.2L426.75-26.2Q430.25-26.2 432.2-23.93 434.15-21.65 434.15-17.1L434.15-17.1 434.15 0 431.4 0 431.4-16.95Q431.4-20.2 430-21.98 428.6-23.75 425.75-23.75L425.75-23.75Q424.45-23.75 423.3-23.35 422.15-22.95 421.3-22.18 420.45-21.4 419.95-20.28 419.45-19.15 419.45-17.75L419.45-17.75 419.45 0ZM461.1 3L461.1 3Q461.1 7.05 458.37 8.83 455.65 10.6 449.95 10.6L449.95 10.6Q444.55 10.6 442.25 8.93 439.95 7.25 439.95 4.1L439.95 4.1Q439.95 1.85 441.05 0.6 442.15-0.65 443.95-1.05L443.95-1.05 443.95-1.6Q441.75-2.55 441.75-5.05L441.75-5.05Q441.75-6.65 442.75-7.8 443.75-8.95 445.6-9.15L445.6-9.15 445.6-9.6Q443.65-10.55 442.55-12.5 441.45-14.45 441.45-17.45L441.45-17.45Q441.45-21.8 443.72-24 446-26.2 449.9-26.2L449.9-26.2Q452.45-26.2 454.5-25.1L454.5-25.1 454.5-26.6Q454.5-27.75 454.97-28.23 455.45-28.7 456.6-28.7L456.6-28.7 460.55-28.7 460.55-26.3 455.9-26.3 455.9-24.1Q457.05-23 457.7-21.35 458.35-19.7 458.35-17.45L458.35-17.45Q458.35-13.1 456.07-10.93 453.8-8.75 449.9-8.75L449.9-8.75Q448.65-8.75 447.4-9L447.4-9Q445.8-8.6 444.95-7.75 444.1-6.9 444.1-5.75L444.1-5.75Q444.1-4.6 444.87-4 445.65-3.4 447.45-3.4L447.45-3.4 453.3-3.4Q457.5-3.4 459.3-1.78 461.1-0.15 461.1 3ZM458.5 3.15L458.5 3.15Q458.5 1.2 457.35 0.18 456.2-0.85 453.2-0.85L453.2-0.85 445.65-0.85Q442.5 0.45 442.5 3.55L442.5 3.55Q442.5 5.8 443.97 7.05 445.45 8.3 448.45 8.3L448.45 8.3 451.4 8.3Q454.85 8.3 456.67 7.08 458.5 5.85 458.5 3.15ZM449.9-11L449.9-11Q452.6-11 454.07-12.43 455.55-13.85 455.55-16.45L455.55-16.45 455.55-18.5Q455.55-21.1 454.07-22.53 452.6-23.95 449.9-23.95L449.9-23.95Q447.2-23.95 445.72-22.53 444.25-21.1 444.25-18.5L444.25-18.5 444.25-16.45Q444.25-13.85 445.72-12.43 447.2-11 449.9-11ZM472.5 0.6L472.5 0.6Q469.5 0.6 467.35-0.58 465.2-1.75 463.6-4.15L463.6-4.15 465.55-5.75Q466.95-3.65 468.6-2.73 470.25-1.8 472.5-1.8L472.5-1.8Q475.05-1.8 476.55-3.05 478.05-4.3 478.05-6.7L478.05-6.7Q478.05-8.8 477.05-9.98 476.05-11.15 473.45-11.6L473.45-11.6 471.45-11.95Q467.95-12.55 466.17-14.18 464.4-15.8 464.4-19.1L464.4-19.1Q464.4-22.75 466.6-24.48 468.8-26.2 472.3-26.2L472.3-26.2Q474.95-26.2 476.9-25.28 478.85-24.35 480.3-22.35L480.3-22.35 478.5-20.7Q476.2-23.8 472.35-23.8L472.35-23.8Q469.8-23.8 468.45-22.65 467.1-21.5 467.1-19.2L467.1-19.2Q467.1-16.95 468.2-15.9 469.3-14.85 471.85-14.4L471.85-14.4 473.8-14.05Q477.45-13.4 479.1-11.75 480.75-10.1 480.75-6.95L480.75-6.95Q480.75-3.35 478.6-1.38 476.45 0.6 472.5 0.6ZM516.49 0L513.44 0Q510.69 0 510.69-2.7L510.69-2.7 510.69-4.1 510.29-4.1Q509.64-1.85 507.89-0.63 506.14 0.6 503.49 0.6L503.49 0.6Q499.89 0.6 497.99-1.23 496.09-3.05 496.09-6.75L496.09-6.75Q496.09-10.4 498.34-12.35 500.59-14.3 505.14-14.3L505.14-14.3 510.69-14.3 510.69-17.7Q510.69-20.95 509.29-22.35 507.89-23.75 504.94-23.75L504.94-23.75Q502.69-23.75 501.19-22.73 499.69-21.7 498.74-19.6L498.74-19.6 496.94-21.15Q497.94-23.4 499.97-24.8 501.99-26.2 505.04-26.2L505.04-26.2Q509.19-26.2 511.32-24.15 513.44-22.1 513.44-18L513.44-18 513.44-2.4 516.49-2.4 516.49 0ZM504.09-1.8L504.09-1.8Q505.49-1.8 506.69-2.23 507.89-2.65 508.79-3.45 509.69-4.25 510.19-5.33 510.69-6.4 510.69-7.7L510.69-7.7 510.69-12.2 505.09-12.2Q502.09-12.2 500.52-11.03 498.94-9.85 498.94-7.75L498.94-7.75 498.94-6.15Q498.94-4 500.37-2.9 501.79-1.8 504.09-1.8ZM525.24 0L518.89-25.6 521.54-25.6 524.74-12.5 526.94-2.45 527.29-2.45 529.69-12.5 532.84-25.6 536.24-25.6 539.44-12.5 541.84-2.45 542.19-2.45 544.39-12.5 547.59-25.6 550.19-25.6 543.79 0 540.19 0 536.64-13.9 534.74-22.85 534.34-22.85 532.39-13.9 528.89 0 525.24 0ZM573.58 0L570.53 0Q567.78 0 567.78-2.7L567.78-2.7 567.78-4.1 567.38-4.1Q566.73-1.85 564.98-0.63 563.23 0.6 560.58 0.6L560.58 0.6Q556.98 0.6 555.08-1.23 553.18-3.05 553.18-6.75L553.18-6.75Q553.18-10.4 555.43-12.35 557.68-14.3 562.23-14.3L562.23-14.3 567.78-14.3 567.78-17.7Q567.78-20.95 566.38-22.35 564.98-23.75 562.03-23.75L562.03-23.75Q559.78-23.75 558.28-22.73 556.78-21.7 555.83-19.6L555.83-19.6 554.03-21.15Q555.03-23.4 557.06-24.8 559.08-26.2 562.13-26.2L562.13-26.2Q566.28-26.2 568.41-24.15 570.53-22.1 570.53-18L570.53-18 570.53-2.4 573.58-2.4 573.58 0ZM561.18-1.8L561.18-1.8Q562.58-1.8 563.78-2.23 564.98-2.65 565.88-3.45 566.78-4.25 567.28-5.33 567.78-6.4 567.78-7.7L567.78-7.7 567.78-12.2 562.18-12.2Q559.18-12.2 557.61-11.03 556.03-9.85 556.03-7.75L556.03-7.75 556.03-6.15Q556.03-4 557.46-2.9 558.88-1.8 561.18-1.8ZM580.33-32.65L580.33-32.65Q579.33-32.65 578.91-33.1 578.48-33.55 578.48-34.3L578.48-34.3 578.48-35Q578.48-35.75 578.91-36.2 579.33-36.65 580.33-36.65L580.33-36.65Q581.33-36.65 581.76-36.2 582.18-35.75 582.18-35L582.18-35 582.18-34.3Q582.18-33.55 581.76-33.1 581.33-32.65 580.33-32.65ZM578.93 0L578.93-25.6 581.68-25.6 581.68 0 578.93 0ZM598.68 0L594.03 0Q592.48 0 591.78-0.68 591.08-1.35 591.08-2.9L591.08-2.9 591.08-23.2 587.13-23.2 587.13-25.6 589.78-25.6Q590.73-25.6 591.03-26.08 591.33-26.55 591.33-27.5L591.33-27.5 591.33-32.75 593.83-32.75 593.83-25.6 598.93-25.6 598.93-23.2 593.83-23.2 593.83-2.4 598.68-2.4 598.68 0ZM611.73 0.6L611.73 0.6Q608.73 0.6 606.58-0.58 604.43-1.75 602.83-4.15L602.83-4.15 604.78-5.75Q606.18-3.65 607.83-2.73 609.48-1.8 611.73-1.8L611.73-1.8Q614.28-1.8 615.78-3.05 617.28-4.3 617.28-6.7L617.28-6.7Q617.28-8.8 616.28-9.98 615.28-11.15 612.68-11.6L612.68-11.6 610.68-11.95Q607.18-12.55 605.4-14.18 603.63-15.8 603.63-19.1L603.63-19.1Q603.63-22.75 605.83-24.48 608.03-26.2 611.53-26.2L611.53-26.2Q614.18-26.2 616.13-25.28 618.08-24.35 619.53-22.35L619.53-22.35 617.73-20.7Q615.43-23.8 611.58-23.8L611.58-23.8Q609.03-23.8 607.68-22.65 606.33-21.5 606.33-19.2L606.33-19.2Q606.33-16.95 607.43-15.9 608.53-14.85 611.08-14.4L611.08-14.4 613.03-14.05Q616.68-13.4 618.33-11.75 619.98-10.1 619.98-6.95L619.98-6.95Q619.98-3.35 617.83-1.38 615.68 0.6 611.73 0.6ZM629.32-9L627.92-9 627.12-23.15 627.12-34.9 630.12-34.9 630.12-23.15 629.32-9ZM628.62 0.45L628.62 0.45Q626.32 0.45 626.32-1.55L626.32-1.55 626.32-2.2Q626.32-4.2 628.62-4.2L628.62-4.2Q630.92-4.2 630.92-2.2L630.92-2.2 630.92-1.55Q630.92 0.45 628.62 0.45Z" opacity="1" transform="matrix(1,0,0,1,0,0)" fill="#610817" class="slogan-text-1" data-fill-palette-color="secondary" id="text-1"></path></svg></g></svg></g></svg></g></svg></g><g transform="matrix(1,0,0,1,0,23.46156890188007)"><svg viewBox="0 0 211.4289777391305 199.33485343324506" height="199.33485343324506" width="211.4289777391305"><g><svg xmlns="http://www.w3.org/2000/svg" xmlns:xlink="http://www.w3.org/1999/xlink" version="1.1" x="0" y="0" viewBox="1.2689990997314453 4.056000232696533 97.46199798583984 91.88699340820312" enable-background="new 0 0 100 100" xml:space="preserve" height="199.33485343324506" width="211.4289777391305" class="icon-icon-0" data-fill-palette-color="accent" id="icon-0"><path d="M62.021 30.219H45.005V19.347c0-1.584 1.289-2.873 2.873-2.873h4.419c1.584 0 2.873 1.289 2.873 2.873v4.417h1.126c0.019 0 0.034 0 0.052 0.003 0.221 0.025 0.391 0.212 0.391 0.438v0.442c0 0.244-0.197 0.441-0.441 0.441h-1.126v0.888c0 0.17 0.052 0.33 0.142 0.464 0.164 0.252 0.461 0.42 0.797 0.42h1.22c0.337 0 0.632-0.168 0.797-0.42 0.081-0.123 0.131-0.265 0.14-0.419v-6.674c0-3.29-2.677-5.966-5.967-5.966H47.88c-3.29 0-5.967 2.676-5.967 5.966v10.872h-3.757c-0.487 0-0.884 0.396-0.884 0.884v19.005c0 0.488 0.396 0.884 0.884 0.884h8.561 6.635 8.672c0.488 0 0.883-0.396 0.883-0.884V31.103C62.904 30.615 62.51 30.219 62.021 30.219z" fill="#0074d9" data-fill-palette-color="accent"></path><path d="M92.98 67.04c-0.851-2.801-2.293-5.351-4.569-6.495 2.569-1.078 4.371-3.617 4.371-6.576V11.187c0-3.938-3.192-7.131-7.13-7.131H14.347c-3.938 0-7.13 3.193-7.13 7.131v42.782c0 2.959 1.802 5.498 4.371 6.576-2.278 1.146-3.719 3.694-4.569 6.495l-5.75 21.772c0 3.938 3.193 7.131 7.13 7.131H91.6c3.938 0 7.131-3.192 7.131-7.131L92.98 67.04zM50 6.875c0.669 0 1.211 0.542 1.211 1.212 0 0.667-0.542 1.21-1.211 1.21s-1.21-0.543-1.21-1.21C48.79 7.417 49.331 6.875 50 6.875zM12.857 10.673h74.284V54.48H12.857V10.673zM58.913 93.966H41.087c-0.984 0-1.783-0.799-1.783-1.782l1.389-10.695c0-0.984 0.798-1.783 1.782-1.783h15.248c0.983 0 1.782 0.799 1.782 1.783l1.19 10.695C60.695 93.167 59.896 93.966 58.913 93.966zM90.41 77.699H9.592c-0.984 0-1.782-0.797-1.782-1.782l2.973-10.892c0.257-0.922 0.798-1.783 1.783-1.783h74.872c0.983 0 1.517 0.847 1.78 1.783l2.976 10.892C92.191 76.902 91.395 77.699 90.41 77.699z" fill="#0074d9" data-fill-palette-color="accent"></path></svg></g></svg></g></svg></g><defs></defs></svg><rect width="395.52" height="160.95311246374112" fill="none" stroke="none" visibility="hidden"></rect></g></svg></g></svg>
